<svg width="1200" height="760" viewBox="0 0 1200 760" fill="none" xmlns="http://www.w3.org/2000/svg">
  <rect width="1200" height="760" rx="24" fill="#F7EFE7"/>
  <ellipse cx="608" cy="390" rx="312" ry="220" fill="#FFF9EE"/>
  <path d="M336 474C390 390 470 330 560 298C614 282 668 280 720 296C676 332 620 392 584 476C540 478 466 490 336 474Z" fill="#7F9176" fill-opacity="0.16"/>
  <path d="M430 516C470 450 522 404 588 378C646 356 716 358 782 386C742 430 706 486 670 542C606 546 524 548 430 516Z" fill="#B89A7F" fill-opacity="0.17"/>
  <path d="M410 274C454 232 516 210 582 208C630 208 670 220 704 244C654 252 606 276 574 322C530 322 472 316 434 298C412 286 400 278 410 274Z" fill="#5E6E58" fill-opacity="0.12"/>
  <path d="M734 266C782 218 860 182 926 182C970 182 1008 196 1038 218C996 244 952 272 904 324C858 324 806 314 760 294C742 284 724 274 734 266Z" fill="#8C9D7E" fill-opacity="0.14"/>
  <path d="M226 540C270 494 322 458 382 440C340 486 320 534 320 590L226 540Z" fill="#8C9D7E" fill-opacity="0.14"/>
  <path d="M484 560C520 520 562 488 614 468C566 514 550 556 556 610L484 560Z" fill="#FFFFFF" fill-opacity="0.45"/>
</svg>
