<svg width="1600" height="2000" viewBox="0 0 1600 2000" fill="none" xmlns="http://www.w3.org/2000/svg">
  <rect width="1600" height="2000" fill="#F4ECE4"/>
  <rect y="0" width="1600" height="2000" fill="url(#bg)"/>
  <ellipse cx="1190" cy="320" rx="420" ry="300" fill="#FFF8EE" fill-opacity="0.8"/>
  <ellipse cx="388" cy="760" rx="480" ry="360" fill="#E8D9C4" fill-opacity="0.55"/>
  <path d="M0 1400C210 1290 338 1224 504 1228C682 1232 776 1318 932 1338C1136 1364 1320 1282 1600 1140V2000H0V1400Z" fill="#D1C2AD" fill-opacity="0.28"/>
  <path d="M0 1600C208 1468 341 1398 494 1402C670 1408 777 1514 942 1534C1119 1556 1292 1490 1600 1324V2000H0V1600Z" fill="#7F9176" fill-opacity="0.2"/>
  <g opacity="0.9">
    <path d="M993 538C1014 444 1072 402 1142 392C1204 384 1262 426 1292 472C1252 506 1214 550 1200 616C1167 602 1032 610 993 538Z" fill="#5E6E58" fill-opacity="0.24"/>
    <path d="M1092 474C1134 414 1192 392 1250 392C1278 392 1304 400 1320 418C1288 450 1239 500 1216 564C1166 560 1102 534 1092 474Z" fill="#C8B09F" fill-opacity="0.24"/>
    <path d="M1082 594C1084 534 1112 478 1162 450C1204 428 1252 430 1298 454C1275 516 1230 564 1164 606C1127 614 1096 612 1082 594Z" fill="#6A8068" fill-opacity="0.16"/>
  </g>
  <g opacity="0.7">
    <path d="M216 1378C250 1242 304 1158 370 1104C328 1180 310 1261 322 1374L216 1378Z" fill="#7E9076" fill-opacity="0.22"/>
    <path d="M303 1367C338 1260 390 1202 438 1168C422 1244 418 1294 426 1378L303 1367Z" fill="#FFFFFF" fill-opacity="0.35"/>
    <path d="M350 1344C394 1244 440 1176 484 1138C474 1214 468 1288 476 1378L350 1344Z" fill="#C5AC93" fill-opacity="0.24"/>
  </g>
  <ellipse cx="800" cy="1518" rx="300" ry="88" fill="#FFF8EE" fill-opacity="0.36"/>
  <rect x="588" y="1504" width="424" height="16" rx="8" fill="#FFFFFF" fill-opacity="0.35"/>
  <path d="M870 1340C910 1324 944 1308 970 1278C1004 1240 1016 1186 1002 1136C962 1160 924 1186 892 1242C858 1236 822 1248 802 1278C796 1300 804 1328 870 1340Z" fill="#5C6D5A" fill-opacity="0.16"/>
  <path d="M756 1326C816 1266 842 1198 840 1130C804 1132 760 1162 734 1210C710 1260 714 1312 756 1326Z" fill="#AB8C78" fill-opacity="0.16"/>
  <defs>
    <linearGradient id="bg" x1="400" y1="0" x2="1120" y2="2000" gradientUnits="userSpaceOnUse">
      <stop stop-color="#F8F0E7"/>
      <stop offset="1" stop-color="#E8D9C4"/>
    </linearGradient>
  </defs>
</svg>
